<?xml version="1.0" encoding="iso-8859-1"?>
<!-- Generator: Adobe Illustrator 12.0.0, SVG Export Plug-In . SVG Version: 6.00 Build 51448)  -->
<!DOCTYPE svg PUBLIC "-//W3C//DTD SVG 1.1//EN" "http://www.w3.org/Graphics/SVG/1.1/DTD/svg11.dtd" [
	<!ENTITY ns_svg "http://www.w3.org/2000/svg">
	<!ENTITY ns_xlink "http://www.w3.org/1999/xlink">
]>
<svg  version="1.1" id="Layer_1" xmlns="&ns_svg;" xmlns:xlink="&ns_xlink;" width="738.108" height="211.152"
	 viewBox="256.097 649.26 738.108 211.152" style="overflow:visible;enable-background:new 256.097 649.26 738.108 211.152;"
	 xml:space="preserve">
<g>
	<g>
		<path style="fill:#3B4063;" d="M580.433,696.574l-10.186,53.296l-0.791,6.216h-0.313l-0.791-6.216l-10.117-53.296h-20.913v116.587
			h15.845v-78.232h0.977l0.615,4.941l10.972,73.291h7.314l10.923-73.291l0.605-4.941h0.972v78.174h15.85V696.574H580.433
			L580.433,696.574z"/>
		<path style="fill:#3B4063;" d="M654.332,798.103v-53.296c0-5.728-2.197-10.605-5.859-14.077
			c-3.652-3.477-8.418-5.552-13.652-5.552c-6.162,0-11.584,2.568-15.364,6.831c-3.789,4.272-6.157,10-6.157,16.343v3.657h16.033
			v-4.146c0-1.406,0.186-2.866,0.303-4.15c0.488-2.559,1.592-4.57,4.268-4.57c2.08,0,3.369,1.104,3.975,2.681
			c0.488,1.587,0.488,3.784,0.488,5.244v9.512c-0.605,1.772-3.652,3.174-7.617,5.244c-3.967,2.075-8.723,5.063-12.571,9.819
			c-3.779,4.756-6.641,11.709-6.641,21.401c0,9.023,2.197,14.453,4.941,17.441c2.559,3.169,5.85,3.96,7.92,3.96
			c3.174,0,6.223-1.279,8.42-2.993c2.197-1.768,3.662-3.838,4.453-5.244h1.094c0,1.099,0,5.244,1.406,7.017h15.732
			C654.82,809.319,654.332,805.842,654.332,798.103z M638.355,793.469c0,2.983-2.998,5.239-6.641,5.239
			c-1.895,0-2.988-1.401-3.662-3.35c-0.607-1.768-0.789-3.657-0.789-4.756c0-8.228,3.348-16.04,11.092-19.331V793.469
			L638.355,793.469z"/>
		<path style="fill:#3B4063;" d="M684.634,729.748c-2.559,2.559-3.652,5.244-3.779,6.343v-9.692H664.82v86.772h16.035v-60.308
			c0-2.686,0.488-5.366,3.477-7.93c2.559-2.378,5.537-2.681,8.105-2.681c1.396,0,2.998,0.181,4.453,0.669v-17.803
			C690.972,725.115,687.193,727.37,684.634,729.748z"/>
		<path style="fill:#3B4063;" d="M732.261,754.626l11.572-28.232H729.38l-7.744,22.681l-0.977,2.866h-0.791v-55.366h-16.035v116.587
			h16.035v-30l2.08-5.063l0.488-1.284h0.791l0.313,1.284l7.93,35.063h15.361L732.261,754.626z"/>
		<path style="fill:#3B4063;" d="M778.228,726.394v68.354c-0.488,0.791-0.967,1.582-1.465,2.07c-1.104,1.099-2.07,2.075-3.779,2.075
			c-1.895,0-3.848-0.488-3.848-3.779v-68.721h-16.035v71.035c0,3.657,0.977,7.93,2.871,11.099c1.885,3.291,4.932,5.854,9.209,5.854
			c1.396,0,2.861-0.488,4.268-1.279c2.861-1.582,5.059-3.843,6.943-5.728c0.801-0.796,1.406-1.401,1.777-1.587v7.319h16.045v-86.709
			h-15.986V726.394z"/>
		<path style="fill:#3B4063;" d="M845.191,730.842c-2.08-3.169-5.078-5.728-9.521-5.728c-1.396,0-2.979,0.303-4.443,1.094
			c-3.184,1.406-5.557,3.354-8.232,5.854v-5.728h-16.035v116.582h16.035v-35.488c1.396,1.279,2.676,2.378,4.141,3.477
			c2.383,1.768,5.557,3.472,8.604,3.472c4.453,0,7.432-2.563,9.512-5.854c1.885-3.169,2.861-7.437,2.861-11.099v-55.366
			C848.042,738.469,847.076,734.138,845.191,730.842z M832.007,794.138c0,2.993-1.895,5.244-4.268,5.244
			c-2.383,0-4.756-2.681-4.756-5.244v-48.721c0-2.988,2.373-5.244,4.756-5.244c2.373,0,4.268,2.197,4.268,5.244V794.138z"/>
		<path style="fill:#CA4D5E;" d="M912.857,696.574v92.617c0,1.772-0.166,3.179-0.596,4.272c-0.615,2.373-2.07,4.272-5.068,4.272
			c-1.396,0-2.568-0.493-3.359-1.289c-1.572-1.768-2.373-3.96-2.373-7.314V696.57h-17.139v92.617
			c0.186,4.756,1.104,9.033,2.871,12.686c1.396,3.169,3.467,6.157,6.641,8.535c3.174,2.568,7.627,3.965,13.359,3.965
			s10-1.396,13.164-3.965c3.174-2.378,5.371-5.425,6.836-8.535c1.768-3.652,2.676-7.93,2.861-12.686V696.57h-17.197V696.574z"/>
		<path style="fill:#CA4D5E;" d="M976.333,734.929l15.732-38.413h-16.631l-14.277,38.843l-0.791,1.89h-0.605v-40.728h-17.139
			v116.582h17.139v-41.221l3.965-9.507l0.977-2.383h0.488l0.479,2.383l11.895,50.728h16.65L976.333,734.929z"/>
	</g>
	<rect x="506.707" y="670.842" style="fill:#7D8CA3;" width="2.681" height="167.993"/>
	<g>
		<path style="fill:#7D8CA3;" d="M313.597,707.551h-0.186c0,0,0,0,0.063-0.063C313.475,707.492,313.533,707.492,313.597,707.551z"/>
		<g>
			<g>
				<path style="fill:#7D8CA3;" d="M348.411,703.103l-1.401,0.063c-0.059,0.176-0.117,0.308-0.117,0.488l0,0
					c-0.181,0.488-0.425,0.977-0.669,1.465c-0.068,0.122-0.122,0.244-0.186,0.366c0,0.059-0.063,0.059-0.063,0.117
					c-0.786,1.099-1.826,2.192-3.169,3.169c-0.186,0.493-0.361,1.035-0.61,1.528c0,0.063,0,0.063-0.063,0.117
					c-0.122,0.186-0.181,0.425-0.303,0.61l0,0c-0.068,0.063-0.068,0.122-0.122,0.181c0,0.063-0.063,0.063-0.063,0.122
					c-0.063,0.117-0.181,0.308-0.244,0.43l0,0c0.43-0.186,0.791-0.366,1.157-0.61c0.181-0.122,0.366-0.181,0.488-0.313
					c0.117-0.059,0.244-0.112,0.361-0.239c1.162-0.728,2.197-1.528,2.993-2.437c1.401-1.528,2.134-3.232,2.134-5.063
					C348.411,703.156,348.411,703.103,348.411,703.103z M345.55,697.429c0.791,0.977,1.343,2.012,1.528,3.174
					c0,0.122,0.059,0.308,0.059,0.425v0.063l-1.099,0.063l-2.681,0.117v0.063l4.692-0.181
					C347.684,699.807,346.766,698.586,345.55,697.429z M341.463,703.406l-0.918,0.063c0,0.117-0.063,0.239-0.063,0.361l0,0
					c-0.059,0.244-0.117,0.547-0.181,0.796c-0.117,0.361-0.244,0.728-0.366,1.099c-0.972,2.314-2.808,4.39-5.181,5.85
					c-0.181,0.674-0.425,1.284-0.674,1.831c0.732-0.308,1.401-0.61,2.012-0.977c0.244-0.122,0.425-0.244,0.61-0.366
					c0.303-0.181,0.547-0.361,0.791-0.61l0,0c0,0,0.063,0,0.063-0.059l0,0l0,0l0,0c0,0,0.059,0,0.059-0.063
					c0.068-0.063,0.068-0.063,0.122-0.122l0,0c0.728-0.605,1.401-1.279,1.953-2.07c0.674-0.972,1.216-2.075,1.46-3.228
					c0.186-0.791,0.313-1.587,0.313-2.437V703.406L341.463,703.406z M339.266,697.307c0.063,0.068,0.122,0.186,0.186,0.249
					c0.181,0.244,0.308,0.488,0.425,0.786c0.063,0.249,0.186,0.43,0.244,0.61c0.122,0.366,0.244,0.796,0.366,1.162
					s0.181,0.791,0.181,1.216v0.063l-4.883,0.244l3.11-0.117l1.162-0.068l1.216-0.059
					C340.911,699.992,340.184,698.586,339.266,697.307z M334.51,703.708h-0.425c0,0.674-0.117,1.406-0.186,2.017
					c0,0.059,0,0.112-0.059,0.181c-0.186,0.854-0.366,1.709-0.674,2.5c-0.117,0.425-0.308,0.854-0.483,1.221
					c-1.04,2.134-2.5,3.652-4.272,4.023c-0.059,0-0.117,0-0.117,0c-0.244,0-0.488,0.059-0.674,0.059c-0.117,0-0.303,0-0.425,0l0,0
					c-0.063,0-0.063,0-0.117,0c-0.854-0.117-1.714-0.542-2.5-1.279c1.035,1.099,2.251,1.772,3.472,1.89c0.063,0,0.117,0,0.181,0
					c0.244,0,0.493,0,0.732,0c0.181,0,0.303-0.059,0.425-0.059l0,0l0,0c0,0,0.063,0,0.117-0.063c0.923-0.249,1.772-0.791,2.5-1.646
					c0.493-0.547,0.923-1.221,1.279-2.012c0.122-0.181,0.186-0.425,0.249-0.61c0-0.059,0-0.059,0.063-0.117
					c0.059-0.181,0.181-0.425,0.244-0.61c0.244-0.859,0.425-1.772,0.61-2.749c0.122-0.85,0.122-1.768,0.122-2.744H334.51
					L334.51,703.708z M332.684,696.208c0.303,0.61,0.542,1.284,0.728,2.017c0.186,0.605,0.366,1.279,0.43,2.012
					c0.122,0.488,0.181,1.03,0.181,1.523h0.313C334.085,699.748,333.475,697.859,332.684,696.208z M332.864,692.737
					C332.864,692.795,332.864,692.795,332.864,692.737c0.186,0.122,0.366,0.122,0.493,0.181
					C333.167,692.859,332.986,692.795,332.864,692.737z M327.317,691.692h-0.186h-0.732c-1.641,0.186-3.105,1.406-4.077,3.296
					c-0.552,0.977-0.923,2.192-1.162,3.535c-0.117,0.669-0.244,1.401-0.244,2.197c-0.059,0.542-0.059,1.094,0,1.646h0.43
					c0.122-2.568,0.791-4.941,1.772-6.709c0.977-1.772,2.319-2.93,3.843-3.291h0.122l0.669-0.068c1.157,0,2.256,0.552,3.169,1.528
					C329.876,692.615,328.655,691.882,327.317,691.692z M322.498,713.283c-0.181-0.059-0.425-0.117-0.61-0.181
					C322.132,713.225,322.317,713.283,322.498,713.283C322.562,713.342,322.498,713.342,322.498,713.283z M321.707,706.941
					c-0.186-0.791-0.313-1.646-0.366-2.563v-0.063h-0.366c0.122,0.796,0.249,1.523,0.425,2.197c0,0.059,0.068,0.117,0.068,0.181
					c0.244,0.918,0.542,1.768,0.913,2.563c0,0.059,0,0.059,0.063,0.117C322.195,708.65,321.951,707.859,321.707,706.941z
					 M315.667,697.004c-0.361,0.488-0.669,0.977-0.913,1.523c-0.122,0.244-0.249,0.547-0.366,0.854
					c-0.059,0.249-0.122,0.493-0.181,0.674c-0.122,0.361-0.186,0.674-0.186,1.035c0,0.063,0,0.181-0.059,0.244
					c-0.068,0.43-0.068,0.854-0.068,1.284v0.117l0.923-0.063c0.244-1.523,0.791-2.988,1.704-4.268
					c0.732-1.104,1.646-2.075,2.744-2.925c0.43-0.313,0.854-0.61,1.348-0.923c0.059-0.117,0.059-0.244,0.117-0.303
					c0.063-0.122,0.063-0.244,0.122-0.366c0.117-0.425,0.303-0.791,0.425-1.099C318.899,693.65,316.951,695.115,315.667,697.004z
					 M319.939,704.382l-5.854,0.249c0.063,0.176,0.122,0.361,0.181,0.542l0,0c0.063,0.313,0.186,0.552,0.313,0.796
					c0.117,0.361,0.303,0.732,0.488,1.094c0.308,0.61,0.669,1.162,1.094,1.646c-0.361-0.542-0.669-1.152-0.85-1.768
					c-0.244-0.732-0.43-1.46-0.488-2.256v-0.063L319.939,704.382L319.939,704.382z M311.463,695.906
					c-0.493,0.361-0.977,0.669-1.401,1.099c-0.122,0.117-0.244,0.181-0.366,0.303c-0.117,0.127-0.244,0.249-0.366,0.43
					c-1.343,1.401-2.192,3.047-2.319,4.756c0,0.181,0,0.308,0,0.493v0.117l1.157-0.063h0.308c0.547-2.012,2.012-3.965,4.214-5.61
					c0.117-0.366,0.244-0.732,0.425-1.035c0.303-0.669,0.669-1.343,1.035-1.953C313.167,694.807,312.254,695.359,311.463,695.906z
					 M311.951,704.807L311.951,704.807C311.951,704.748,311.951,704.748,311.951,704.807c0-0.059,0-0.059,0-0.059h-0.117h-0.366
					h-0.186l-0.61,0.059h-0.181l-1.099,0.068l0,0l0,0c0,0,0,0,0,0.059c-0.059,0-0.122,0-0.181,0l0,0l-1.89,0.122
					c0,0.063,0.059,0.117,0.059,0.181c0.068,0.181,0.122,0.366,0.186,0.547l0,0c0.181,0.488,0.493,0.918,0.791,1.348
					c0,0.059,0.059,0.059,0.059,0.117c0.068,0.122,0.186,0.244,0.244,0.366c0.068,0.059,0.068,0.059,0.122,0.117
					c0.366,0.425,0.732,0.791,1.162,1.157c-0.552-0.669-0.977-1.343-1.289-2.075c-0.176-0.547-0.303-1.094-0.361-1.646v-0.059
					l2.139-0.122L311.951,704.807z"/>
				<path style="fill:#7D8CA3;" d="M454.388,807.248c-1.035,3.418-3.599,6.646-7.314,9.39c-0.366,1.099-0.854,2.134-1.348,3.169
					c-0.303,0.552-0.61,1.104-0.913,1.646l0,0l0,0c-0.186,0.313-0.366,0.552-0.493,0.854c-0.244,0.366-0.488,0.679-0.728,1.035
					c0.488-0.181,0.977-0.425,1.465-0.605l0,0c0.488-0.244,0.972-0.488,1.46-0.728c0.977-0.488,1.831-1.035,2.686-1.523
					c5.425-3.423,8.721-7.93,8.901-12.993c0-0.063,0-0.117,0-0.186h-3.721v-0.059H454.388z M457.684,803.528
					c-1.04-3.599-3.604-7.007-7.383-9.937c-2.139-1.646-4.639-3.174-7.5-4.512c0.181,0.244,0.361,0.488,0.547,0.728
					c0.791,0.366,1.523,0.796,2.192,1.162c0.488,0.303,0.918,0.547,1.401,0.85c1.099,0.674,2.012,1.465,2.925,2.256
					c0.43,0.366,0.791,0.796,1.221,1.162c2.256,2.432,3.599,5.244,3.721,8.286v0.063h2.866v-0.059H457.684z M444.754,807.248h-2.5
					c-0.249,1.401-0.732,2.681-1.284,3.96c-0.854,1.958-2.134,3.784-3.599,5.43l0,0c-0.542,0.61-1.099,1.157-1.709,1.704
					c-1.338,1.162-2.739,2.261-4.326,3.179c-0.063,0.181-0.117,0.361-0.186,0.542c-0.059,0.186-0.117,0.366-0.181,0.61v0.063l0,0
					c-0.361,1.099-0.786,2.07-1.279,3.047c0.547-0.181,1.035-0.366,1.528-0.547c1.152-0.488,2.314-1.035,3.354-1.646
					c0.303-0.181,0.542-0.308,0.854-0.488c0.361-0.244,0.791-0.547,1.157-0.796c0.786-0.542,1.523-1.152,2.251-1.821
					c0.181-0.186,0.308-0.313,0.493-0.493c0.059-0.063,0.117-0.117,0.181-0.186c0.181-0.244,0.43-0.425,0.61-0.669
					c0.063-0.063,0.117-0.117,0.181-0.186c0.181-0.181,0.361-0.425,0.488-0.61c0.117-0.176,0.244-0.356,0.43-0.542
					c0.669-0.918,1.221-1.826,1.709-2.866c0.122-0.244,0.239-0.547,0.361-0.791l0,0c0.063-0.063,0.063-0.117,0.117-0.186
					c0.854-2.007,1.284-4.141,1.348-6.396C444.754,807.37,444.754,807.307,444.754,807.248z M444.451,803.528
					c-0.186-0.972-0.43-1.953-0.796-2.925l0,0l0,0c-1.46-4.082-4.268-7.744-7.925-10.61l0,0l0,0l0,0
					c-0.488-0.361-0.972-0.728-1.465-1.099c0,0-0.059,0-0.059-0.063c0,0-0.063,0-0.063-0.063c-0.493-0.303-0.918-0.61-1.401-0.913
					c-0.063,0-0.063-0.063-0.122-0.063s-0.059-0.063-0.117-0.063c-0.493-0.308-0.977-0.547-1.465-0.791
					c-0.063-0.063-0.181-0.063-0.249-0.122c-0.542-0.303-1.094-0.547-1.704-0.791c0.122,0.308,0.308,0.61,0.425,0.918l0,0
					c0.796,0.308,1.587,0.61,2.319,0.972c1.284,0.674,2.5,1.401,3.604,2.256c2.07,1.587,3.779,3.535,5,5.732
					c1.035,1.826,1.704,3.843,1.948,6.035c0,0.181,0.063,0.361,0.063,0.488l0,0c0.063,0.366,0.063,0.728,0.063,1.04v0.059h1.943
					V803.528z M430.12,807.248c-0.361,4.023-1.465,7.744-3.042,10.791c-0.068,0.117-0.122,0.186-0.122,0.244
					c-1.401,2.559-3.174,4.634-5.117,5.854c-0.313,0.181-0.61,0.366-0.977,0.547c-0.732,0.366-1.523,0.61-2.319,0.728
					c-0.063,0-0.181,0.068-0.244,0.068l0,0c-0.181,0-0.361,0-0.547,0l0,0c-0.244,0-0.488,0-0.791,0
					c-3.54-0.244-7.319-4.512-9.268-8.965c0,0,0.669,2.251,0.967,2.617l0,0c1.533,2.925,3.54,5.308,5.732,6.704
					c1.099,0.732,2.319,1.221,3.54,1.406c0.117,0,0.181,0,0.303,0.059l0,0c0.059,0,0.122,0,0.181,0c0.186,0,0.313,0,0.43,0l0,0
					c0.308,0,0.547,0,0.854,0c4.57-0.303,8.418-4.565,10.366-10.972l0,0c0-0.063,0.059-0.122,0.059-0.181
					c0.122-0.493,0.313-0.977,0.43-1.523v-0.068l0,0l0,0l0,0l0,0c0.063-0.181,0.063-0.366,0.117-0.61c0,0,0,0,0-0.059
					c0-0.063,0-0.122,0.063-0.186c0-0.059,0-0.059,0-0.117c0-0.181,0.063-0.308,0.063-0.488c0,0,0,0,0-0.063
					c0-0.059,0-0.122,0-0.181c0.063-0.244,0.117-0.552,0.117-0.854c0.063-0.186,0.063-0.366,0.063-0.552
					c0.063-0.483,0.122-1.035,0.181-1.523c0-0.181,0-0.366,0.068-0.547l0,0l0,0c0-0.063,0-0.117,0-0.186
					c0-0.244,0-0.488,0.059-0.728c0-0.308,0-0.61,0-0.918v-0.181h-1.157v-0.117H430.12z M431.097,802.37
					c-1.035-8.599-5.122-15.796-10.244-18.179c-0.068,0-0.122-0.059-0.186-0.059c-0.669-0.308-1.401-0.547-2.134-0.669
					c-0.122,0-0.181,0-0.308,0c-0.488,0-0.972,0-1.465-0.063c-3.228,0.181-6.099,2.432-8.169,6.035
					c-0.854,1.396-1.523,3.047-2.075,4.819c-0.854,2.744-1.338,5.854-1.401,9.209h1.157c0-0.313,0.063-0.61,0.117-0.923
					c0.977-7.861,4.697-14.507,9.395-16.641c0.063,0,0.117-0.068,0.181-0.068c0.61-0.239,1.284-0.483,1.958-0.542
					c0.059,0,0.181,0,0.239,0l0,0c0.43,0,0.918,0,1.343-0.063c2.993,0.181,5.61,2.256,7.5,5.493c0.732,1.279,1.401,2.803,1.89,4.448
					c0.796,2.5,1.221,5.313,1.289,8.296h1.03C431.155,803.156,431.155,802.795,431.097,802.37z M407.376,824.685
					c-0.117-0.308-0.303-0.547-0.425-0.854c-0.244-0.063-0.43-0.181-0.61-0.244c-1.401-0.547-2.686-1.216-3.843-2.012
					c-1.104-0.732-2.192-1.523-3.11-2.437c-1.772-1.709-3.169-3.652-4.146-5.854l0,0c-0.059-0.059-0.059-0.117-0.122-0.181
					c-0.728-1.831-1.221-3.784-1.221-5.854l0,0h-1.89c0.313,1.523,0.796,3.047,1.465,4.512c0.366,0.854,0.859,1.709,1.348,2.5
					c0.117,0.181,0.244,0.361,0.366,0.542c0,0,0,0,0.059,0.068c0.308,0.488,0.669,0.913,0.977,1.396
					c0.176,0.181,0.361,0.425,0.488,0.61c0.059,0.063,0.122,0.122,0.181,0.249c0.186,0.176,0.308,0.361,0.488,0.542l0,0l0,0
					c0.244,0.244,0.493,0.493,0.732,0.796c0.366,0.361,0.728,0.728,1.099,1.035c0.791,0.728,1.704,1.465,2.622,2.07
					C403.533,822.859,405.428,823.894,407.376,824.685C407.439,824.748,407.376,824.748,407.376,824.685z M406.219,807.248
					L406.219,807.248h-0.435c0.186,0.61,0.068,3.232,0.249,3.843C406.033,811.15,406.277,807.551,406.219,807.248z M403.411,786.394
					c-1.401,0.732-2.744,1.523-3.96,2.437l0,0c-0.244,0.186-0.488,0.361-0.674,0.547c-0.122,0.122-0.244,0.181-0.366,0.308l0,0
					c-0.117,0.063-0.244,0.186-0.303,0.308c-0.366,0.308-0.674,0.61-0.977,0.918c-0.244,0.244-0.425,0.488-0.669,0.728
					c-0.122,0.122-0.244,0.244-0.313,0.366c-0.059,0.117-0.181,0.181-0.244,0.303c-0.059,0.122-0.181,0.186-0.244,0.313
					c-0.308,0.366-0.547,0.728-0.791,1.094c-0.059,0.063-0.117,0.122-0.117,0.186c-0.249,0.366-0.493,0.732-0.674,1.099v0.063
					c-0.547,0.972-0.972,2.007-1.343,3.047c-0.425,1.279-0.732,2.681-0.854,4.082l0,0c0,0.186,0,0.308,0,0.488
					c0,0.244-0.063,0.488-0.063,0.669c0,0.068,0,0.127,0,0.186h2.5c0.181-0.854,0.366-1.709,0.674-2.559l0,0
					c1.343-3.721,3.896-7.139,7.319-9.761l0,0c0.913-0.732,1.89-1.401,2.925-2.012c0.488-1.523,1.035-2.925,1.646-4.268
					C405.608,785.359,404.51,785.842,403.411,786.394z M393.108,820.969c-0.308-0.127-0.547-0.244-0.791-0.366
					c-0.854-0.43-1.709-0.918-2.5-1.401c-4.941-3.174-7.993-7.256-8.174-11.895l0,0h-2.93c1.401,5.068,5.918,9.639,12.437,13.179
					c0.796,0.425,1.65,0.85,2.5,1.279C393.475,821.452,393.284,821.208,393.108,820.969z M391.585,788.103
					c-0.43,0.181-0.791,0.366-1.221,0.605c-0.117,0.063-0.244,0.122-0.425,0.186c-0.547,0.244-1.04,0.547-1.528,0.791
					c-0.547,0.308-1.035,0.61-1.523,0.918c-1.704,1.099-3.232,2.383-4.453,3.716c-2.5,2.686-3.965,5.732-4.082,9.023
					c0,0.068,0,0.127,0,0.186h3.721c0.972-3.228,3.354-6.343,6.768-8.965c0.181-0.117,0.366-0.303,0.61-0.425l0,0
					c0.059-0.117,0.059-0.244,0.122-0.366c0.117-0.303,0.244-0.61,0.361-0.913c0.063-0.122,0.063-0.244,0.122-0.308
					s0.122-0.181,0.122-0.308c0.117-0.244,0.244-0.552,0.361-0.796c0.063-0.117,0.117-0.244,0.181-0.361
					c0.059-0.117,0.122-0.249,0.181-0.361c0.122-0.244,0.244-0.43,0.366-0.674c0.063-0.122,0.117-0.249,0.186-0.43
					c0.117-0.181,0.181-0.361,0.303-0.488c0-0.063,0.063-0.117,0.063-0.117s0,0,0-0.068c0.122-0.181,0.181-0.303,0.308-0.425
					c0.063-0.117,0.117-0.186,0.186-0.303c0.181-0.249,0.361-0.493,0.488-0.732C392.439,787.673,392.01,787.859,391.585,788.103z"/>
				<path style="fill:#7D8CA3;" d="M364.451,723.406c-0.244,0.117-0.488,0.181-0.728,0.303l0,0
					c-0.732,0.366-1.401,0.732-2.075,1.099c-0.308,0.186-0.61,0.366-0.918,0.61c-1.646,1.104-3.042,2.319-4.082,3.721
					c-0.977,1.279-1.582,2.622-1.89,4.028c0,0.063,0,0.176-0.063,0.244c0,0.117-0.063,0.244-0.063,0.425c0,0.063,0,0.117,0,0.244
					c0,0.186-0.059,0.366-0.059,0.552v0.117h3.11c0.669-2.256,2.314-4.39,4.688-6.279c0.186-0.552,0.366-1.162,0.61-1.709
					c0.303-0.791,0.732-1.523,1.157-2.256c0.063-0.122,0.117-0.244,0.244-0.366c0.063-0.063,0.117-0.186,0.186-0.244
					c0.059-0.063,0.059-0.122,0.117-0.122c0-0.063,0.063-0.063,0.063-0.117c0-0.063,0.063-0.063,0.117-0.122
					c0.063-0.059,0.063-0.117,0.122-0.181c0.063-0.063,0.117-0.117,0.117-0.181C364.876,723.225,364.695,723.342,364.451,723.406z
					 M365.12,747.063C365.062,747.004,365.062,747.004,365.12,747.063c-0.059-0.117-0.117-0.181-0.181-0.244h-0.063
					c-0.791-0.425-1.582-0.85-2.256-1.338c-0.913-0.61-1.709-1.289-2.378-1.958c-1.709-1.768-2.744-3.843-2.808-6.035h-2.5l0,0
					c0.063,0.181,0.122,0.366,0.181,0.547c0.068,0.122,0.068,0.244,0.122,0.366c0,0.063,0.063,0.117,0.063,0.181
					c0.122,0.361,0.308,0.674,0.483,1.04c0.068,0.117,0.122,0.244,0.186,0.361c0.063,0.122,0.122,0.244,0.181,0.366
					c0.068,0.059,0.122,0.181,0.186,0.244c0,0,0,0,0,0.063c0.059,0.063,0.122,0.176,0.181,0.244
					c0.063,0.063,0.122,0.181,0.186,0.244c0.059,0.059,0.059,0.117,0.117,0.181c0.063,0.063,0.063,0.117,0.122,0.186L357,741.57
					c0.068,0.063,0.068,0.063,0.122,0.122c0.063,0.117,0.186,0.181,0.244,0.308c0.063,0.122,0.186,0.244,0.313,0.308
					c0.059,0.063,0.117,0.181,0.244,0.244l0,0c0.239,0.244,0.483,0.488,0.728,0.728c0.122,0.122,0.244,0.186,0.366,0.308
					c0.122,0.117,0.186,0.186,0.313,0.308c0.244,0.181,0.425,0.366,0.669,0.547c0.063,0.063,0.117,0.117,0.186,0.186
					c0.176,0.117,0.303,0.244,0.483,0.361c0.063,0.063,0.186,0.122,0.244,0.181c0.186,0.122,0.366,0.313,0.552,0.43
					c0.059,0.063,0.117,0.063,0.117,0.122c0.244,0.181,0.493,0.361,0.791,0.483l0,0c0.366,0.244,0.791,0.493,1.157,0.732
					c0.244,0.117,0.488,0.244,0.728,0.43c0.244,0.117,0.552,0.244,0.796,0.361c0.181,0.122,0.425,0.181,0.605,0.308
					C365.486,747.551,365.306,747.307,365.12,747.063z M374.329,723.225c0.059-0.244,0.176-0.43,0.244-0.674
					c0.181-0.43,0.361-0.859,0.542-1.284c-0.488,0.181-0.972,0.308-1.396,0.547c-0.366,0.186-0.732,0.313-1.104,0.488
					c-0.059,0-0.059,0.068-0.117,0.068c-0.244,0.117-0.547,0.244-0.791,0.425c-0.186,0.117-0.43,0.244-0.61,0.366l-0.063,0.063
					c0,0-0.063,0-0.063,0.059c-0.063,0.059-0.186,0.122-0.244,0.186c-0.303,0.181-0.542,0.361-0.854,0.605
					c-1.343,1.04-2.5,2.256-3.413,3.599c-0.186,0.313-0.366,0.552-0.552,0.854c-1.035,1.831-1.646,3.848-1.704,6.035
					c0,0.068,0,0.122,0,0.122h2.07c0.796-4.028,3.599-7.622,7.563-10c0.059-0.122,0.059-0.308,0.122-0.425
					c0-0.122,0.059-0.244,0.117-0.366c0.244-0.186,0.425-0.308,0.669-0.488C374.632,723.406,374.51,723.283,374.329,723.225
					L374.329,723.225z M375.12,749.074c-0.059,0-0.059,0-0.117-0.059c-1.035-0.43-2.012-0.918-2.866-1.465
					c-1.035-0.674-1.948-1.401-2.744-2.319c-0.063-0.063-0.122-0.117-0.181-0.181c-0.122-0.122-0.244-0.308-0.366-0.43
					c-1.646-2.007-2.617-4.453-2.744-7.134c0-0.063,0-0.063,0-0.117h-1.709c0.728,4.023,3.296,7.744,7.007,10.303l0,0
					c0.43,0.313,0.859,0.61,1.348,0.854c0,0,0,0,0.063,0c0.85,0.547,1.772,0.977,2.744,1.401
					C375.428,749.748,375.306,749.382,375.12,749.074z M391.341,728.342c-1.646-4.39-4.453-7.559-7.686-8.042
					c-0.059,0-0.117,0-0.181-0.063l0,0c-0.361,0-0.728,0-1.03-0.063c-0.796,0.063-1.533,0.244-2.197,0.61
					c-1.348,0.669-2.559,1.89-3.535,3.477c-0.063,0.059-0.122,0.181-0.186,0.244c-0.181,0.303-0.366,0.669-0.547,1.035
					c-0.244,0.488-0.425,0.977-0.605,1.465c0,0.059,0,0.059,0,0.122c-0.732,1.948-1.157,4.268-1.284,6.768c0,0.244,0,0.488,0,0.791
					h0.977c0.181-2.012,0.669-3.901,1.279-5.61c1.528-3.96,4.028-6.826,6.953-7.256c0.063,0,0.117,0,0.181,0l0,0
					c0.308,0,0.61,0,0.918,0c0.674,0.063,1.343,0.244,2.012,0.552c1.216,0.61,2.319,1.704,3.174,3.169
					c0.059,0.063,0.117,0.117,0.117,0.244c0.181,0.308,0.366,0.61,0.493,0.918c0.181,0.43,0.361,0.854,0.542,1.284
					c0,0.059,0,0.059,0,0.059c0.674,1.772,1.104,3.843,1.157,6.157c0,0.181,0,0.361,0,0.547h0.854
					C392.562,732.429,392.073,730.237,391.341,728.342z M391.888,737.37c-0.669,6.704-4.082,12.256-8.232,12.925
					c-0.059,0-0.117,0-0.181,0l0,0c-0.308,0-0.61,0-0.913,0c-2.075-0.122-3.906-1.465-5.244-3.657
					c-0.61-0.972-1.099-2.075-1.465-3.296c-0.425-1.211-0.669-2.612-0.791-4.023c0-0.059,0-0.117,0-0.117l0,0
					c0-0.063,0-0.063,0-0.122c-0.063-0.547-0.063-1.094-0.063-1.646h-0.854c0.674,7.5,4.507,13.721,9.141,14.453
					c0.068,0,0.122,0,0.186,0l0,0c0.366,0,0.674,0,1.035,0c2.256-0.117,4.272-1.641,5.796-4.082
					c0.669-1.099,1.216-2.314,1.646-3.657c0.425-1.343,0.728-2.861,0.854-4.507c0-0.068,0-0.122,0-0.122l0,0
					c0-0.063,0-0.063,0-0.117c0.059-0.61,0.122-1.221,0.122-1.831v-0.122h-1.04v-0.078H391.888z M391.219,722.063
					c0.176,0.313,0.303,0.674,0.425,0.977c0.186,0.063,0.308,0.117,0.43,0.186c0.303,0.112,0.669,0.303,0.972,0.483
					c0.239,0.122,0.547,0.313,0.791,0.43c0.181,0.122,0.366,0.244,0.547,0.366c0,0,0.063,0,0.063,0.059l0.059,0.068
					c0.068,0.059,0.186,0.117,0.249,0.176c0.244,0.186,0.488,0.366,0.728,0.552c1.221,0.913,2.256,2.012,3.047,3.232
					c0.186,0.244,0.361,0.488,0.488,0.791c0.923,1.646,1.465,3.477,1.533,5.425h1.704
					C401.341,729.319,397.073,724.563,391.219,722.063z M400.486,737.37c-0.728,3.599-2.988,6.89-6.279,9.204
					c-0.366,0.308-0.796,0.552-1.221,0.796c-0.244,0.854-0.488,1.646-0.791,2.378c-0.117,0.366-0.308,0.669-0.488,1.035
					c0.366-0.117,0.728-0.244,1.035-0.366c1.152-0.425,2.192-0.972,3.169-1.646c1.162-0.728,2.197-1.582,3.052-2.563
					c0.059-0.059,0.117-0.117,0.181-0.181c0.117-0.186,0.308-0.303,0.43-0.488c1.821-2.256,2.925-4.937,3.042-7.866
					c0-0.059,0-0.117,0-0.117c0-0.063,0-0.063,0-0.122h-2.134v-0.063H400.486z M401.155,724.26c0.244,0.366,0.493,0.669,0.732,1.035
					c0.361,0.186,0.728,0.43,1.099,0.61c0.303,0.181,0.547,0.361,0.854,0.542c1.523,0.977,2.744,2.139,3.657,3.354
					c0.854,1.162,1.465,2.324,1.709,3.662c0.059,0.425,0.117,0.791,0.181,1.279h2.5C410.784,730.603,406.829,726.941,401.155,724.26
					z M409.085,737.37c-0.063,0.117-0.063,0.244-0.117,0.366c-0.732,2.134-2.319,4.141-4.575,5.913
					c-0.366,1.152-0.854,2.319-1.46,3.354c-0.244,0.425-0.488,0.854-0.732,1.221c-0.117,0.181-0.244,0.361-0.361,0.547
					c-0.068,0.059-0.068,0.117-0.122,0.176c0.308-0.117,0.61-0.244,0.854-0.361s0.547-0.249,0.791-0.361
					c0.181-0.063,0.366-0.186,0.547-0.244l0,0c0.43-0.244,0.854-0.43,1.284-0.679l0,0c0.425-0.244,0.85-0.488,1.216-0.786
					c0.972-0.679,1.89-1.401,2.617-2.197c1.958-2.012,3.052-4.268,3.174-6.704c0-0.063,0-0.063,0-0.122h-3.105v-0.122H409.085z"/>
			</g>
			<path style="fill:#3B4063;" d="M374.817,723.469c-0.244,0.181-0.488,0.303-0.674,0.483l0,0c0.063-0.181,0.117-0.303,0.186-0.483
				c0-0.063,0.059-0.127,0.059-0.186C374.51,723.283,374.632,723.406,374.817,723.469z"/>
			<path style="fill:#3B4063;" d="M384.388,737.248h7.441c0,0.059,0,0.059,0,0.122h-7.256
				C384.51,737.37,384.451,737.307,384.388,737.248z"/>
			<path style="fill:#3B4063;" d="M391.888,734.685c0,0.063,0,0.063,0,0.117h-10.669c-0.068-0.059-0.122-0.059-0.186-0.117H391.888z
				"/>
			<path style="fill:#3B4063;" d="M396.155,737.37h-2.988c0-0.068,0-0.068,0-0.122h2.808
				C396.097,737.307,396.155,737.37,396.155,737.37z"/>
			<path style="fill:#3B4063;" d="M430.184,803.528h-23.848c0,0.063,0,0.122,0,0.181h23.901
				C430.184,803.65,430.184,803.586,430.184,803.528z M406.219,807.126v0.176h23.843l0,0c0-0.059,0-0.117,0-0.117h-23.843V807.126z
				 M374.329,723.225c0,0.059-0.068,0.112-0.068,0.181c-0.059,0.181-0.117,0.303-0.181,0.488l0,0
				c0.249-0.186,0.425-0.308,0.669-0.488C374.632,723.406,374.51,723.283,374.329,723.225z M396.033,737.248h-2.808
				c0,0.059,0,0.059,0,0.122h2.993C396.155,737.37,396.097,737.307,396.033,737.248z M391.888,734.685L391.888,734.685h-16.953
				c0,0.063,0,0.063,0,0.117h16.953C391.888,734.807,391.888,734.748,391.888,734.685z M374.876,737.248v0.122h16.953l0,0
				c0-0.068,0-0.068,0-0.122H374.876z M338.411,696.272c-1.279-1.465-3.047-2.617-5.117-3.286c2.437,0.967,4.453,2.5,5.918,4.39
				C339.021,696.941,338.719,696.574,338.411,696.272z M335.428,701.76c-0.366-3.477-1.284-6.587-2.568-8.901
				c-0.059,0-0.059,0-0.117-0.063c0.244,0.43,0.425,0.854,0.669,1.343c0.488,1.099,0.854,2.314,1.099,3.657
				c0.122,0.61,0.249,1.279,0.313,2.007c0.059,0.493,0.117,0.977,0.117,1.465c0,0.063,0,0.181,0,0.249v0.244H335.428z
				 M326.829,704.016l-2.813,0.117l-2.681,0.122l0,0l7.383-0.313l2.925-0.117l2.437-0.122c0-0.059,0-0.059,0-0.117L326.829,704.016z
				 M331.707,701.882h-0.552l-9.814,0.493c0,0,0,0.059,0,0.117l2.559-0.117l0.493-0.068l6.157-0.303l3.535-0.186l0,0
				L331.707,701.882z M331.951,695.051c-0.308-0.425-0.61-0.859-0.918-1.157c0.244,0.308,0.488,0.61,0.728,0.913
				c0.313,0.43,0.61,0.923,0.923,1.465C332.439,695.783,332.195,695.417,331.951,695.051z M323.108,710.539
				c-0.249-0.366-0.425-0.732-0.61-1.099c0.117,0.244,0.244,0.488,0.308,0.674c0.059,0.181,0.181,0.366,0.308,0.547
				c0.361,0.669,0.854,1.216,1.279,1.641C323.963,711.819,323.533,711.272,323.108,710.539z M321.888,711.692
				c0-0.059-0.059-0.117-0.059-0.176c-0.122-0.249-0.186-0.547-0.313-0.859l0,0c-0.059-0.059-0.059-0.176-0.059-0.244
				c0-0.059-0.068-0.117-0.068-0.181c-0.244-0.854-0.488-1.768-0.61-2.681c-0.176-0.977-0.303-1.953-0.356-2.93v-0.244h-0.43
				c0.063,0.674,0.186,1.279,0.244,1.89c0,0.063,0,0.122,0.063,0.181c0.122,0.796,0.308,1.587,0.483,2.319
				c0.068,0.181,0.122,0.366,0.186,0.547c0.425,1.465,0.977,2.808,1.646,3.965c0.063,0,0.063,0,0.122,0.059
				C322.376,712.795,322.132,712.248,321.888,711.692z M316.155,708.772c0.244,0.366,0.552,0.791,0.854,1.104
				c0.61,0.669,1.284,1.216,2.012,1.768c0,0,0.063,0,0.063,0.063l0.063,0.063c0,0,0,0,0.063,0.059c0,0,0.059,0,0.059,0.068
				c0.244,0.176,0.552,0.361,0.796,0.488l0,0c0.181,0.117,0.425,0.181,0.605,0.303c0.366,0.186,0.796,0.366,1.221,0.493
				C319.573,712.126,317.562,710.603,316.155,708.772z"/>
			<path style="fill:#3B4063;" d="M464.207,805.417c-0.063-0.61-0.122-1.216-0.244-1.826c-0.977-5.488-4.146-10.547-9.146-14.756
				l0,0c-4.819-4.082-11.284-7.383-18.906-9.512c-1.89-0.542-3.901-1.035-5.967-1.401l0,0l0,0c-0.122-0.176-0.186-0.361-0.313-0.542
				c-1.279-2.197-2.378-4.512-3.779-6.646l-4.209-6.348c-2.993-4.209-6.216-8.174-9.639-12.007
				c-0.244-0.244-0.425-0.493-0.669-0.732c-0.547-0.547-1.035-1.152-1.582-1.709c0.854-0.669,1.646-1.401,2.378-2.134
				c2.744-2.866,4.272-6.348,4.39-10c0-0.122,0-0.244,0-0.366c0-0.488,0-1.343,0-1.343c-0.059-0.425-0.059-0.918-0.181-1.343
				c-1.768-10.43-14.878-18.54-32.192-19.453c-0.249,0-0.547-0.059-0.791-0.059l0,0c-0.244,0-0.425-0.068-0.669-0.068
				c-0.068,0-0.186,0-0.244,0h-0.068c-0.181,0-0.303,0-0.425,0h-0.728c-3.359,0-6.587,0.313-9.639,0.854
				c-1.343,0.249-2.617,0.547-3.843,0.918c-0.977,0.244-1.89,0.547-2.808,0.918c-0.308,0.122-0.605,0.244-0.972,0.366h-0.063l0,0
				c-4.692-2.075-9.512-3.965-14.326-5.552c-0.796-0.244-1.587-0.542-2.319-0.791l0,0c0.791-0.674,1.465-1.465,2.007-2.192
				c1.465-1.948,2.197-4.146,2.197-6.46c0-0.063,0-0.186,0-0.244c0-0.313-0.068-0.977-0.068-0.977
				c-0.059-0.308-0.117-0.61-0.176-0.977c-0.493-2.251-1.772-4.326-3.604-6.152c-0.669-0.674-1.465-1.284-2.251-1.89
				c-1.104-0.732-2.256-1.465-3.604-2.012c-0.059-0.063-0.181-0.063-0.244-0.122c-3.901-1.772-8.716-2.744-14.023-2.808
				c-0.181,0-0.366,0-0.61,0l0,0c-0.181,0-0.308,0-0.488,0c-0.063,0-0.122,0-0.181,0h-0.068c-0.117,0-0.181,0-0.303,0
				c-0.063,0-0.122,0-0.186,0c-0.117,0-0.239,0-0.303,0c-5.547,0.244-10.732,1.646-14.639,3.965
				c-1.396,0.791-2.617,1.772-3.599,2.744c-0.303,0.308-0.61,0.61-0.854,0.977c-0.059,0.059-0.059,0.059-0.059,0.117
				c-0.068,0.122-0.186,0.181-0.249,0.308c-1.152,1.523-1.89,3.169-2.134,4.937c-0.117,0.547-0.117,1.04-0.117,1.582v0.122
				c0,0.063,0,0.117,0,0.244l0,0c-0.674-0.059-1.348-0.117-1.958-0.181c-3.291-0.244-6.577-0.366-9.878-0.366
				c3.296,0.249,6.646,0.61,9.878,1.035c0.674,0.122,1.348,0.181,2.012,0.308l0,0l0,0v0.186h-0.059c0,0.059,0,0.181,0.059,0.244
				c0.063,0.244,0.063,0.488,0.117,0.669l0,0c0.366,1.523,1.04,2.988,2.075,4.331c0,0.059,0.063,0.059,0.063,0.122
				c0.063,0.117,0.186,0.244,0.244,0.361c0.117,0.181,0.244,0.308,0.43,0.493c-0.122-0.068-0.244-0.068-0.366-0.122
				c-1.523-0.43-3.047-0.854-4.575-1.284c-5.425-1.46-10.913-2.622-16.46-3.657c-1.401-0.244-2.744-0.488-4.15-0.669
				c-8.286-1.279-16.704-2.075-25.059-2.134c7.988,0.547,15.854,1.826,23.657,3.535c1.709,0.366,3.413,0.791,5.117,1.152
				c5.488,1.406,10.977,2.993,16.279,4.756c1.895,0.674,3.784,1.348,5.674,2.012c1.709,0.61,3.359,1.284,5,2.007
				c0.181,0.068,0.43,0.186,0.61,0.249c1.772,0.728,3.535,1.528,5.308,2.319c3.965,1.768,7.808,3.721,11.582,5.854
				c7.563,4.209,14.692,8.965,21.284,14.39l0,0l0,0c1.343,4.634,4.937,8.779,10.181,11.89c1.343,0.791,2.861,1.587,4.453,2.256l0,0
				l0,0c0.186,0.244,0.425,0.488,0.61,0.674c2.134,2.5,4.209,5.059,6.099,7.739c1.948,2.686,3.838,5.493,5.547,8.296l3.472,6.099
				c1.104,2.07,2.012,4.204,3.047,6.343c0.244,0.488,0.43,0.918,0.674,1.396c0.063,0.127,0.122,0.249,0.122,0.313l0,0l0,0
				c-0.313,0.181-0.61,0.366-0.854,0.547c-1.587,1.04-3.052,2.134-4.331,3.291c-4.634,4.272-7.256,9.512-7.5,15.249
				c0,0.176,0,0.361,0,0.488c0,0.605,0,1.216,0.063,1.826h-0.063c0.063,0.61,0.117,1.221,0.244,1.89
				c1.587,9.082,9.39,16.953,20.913,21.831c0.796,0.303,1.587,0.669,2.441,0.972l0,0l0,0c0.059,1.094,0.181,2.192,0.244,3.291
				c0.366,5.791,0.425,11.587,0.181,17.383h15.923c-0.186-4.937-0.493-9.883-1.04-14.756c-0.063-0.791-0.181-1.528-0.249-2.319l0,0
				l0,0c0.435,0.063,0.859,0.122,1.289,0.181c1.035,0.122,2.134,0.249,3.169,0.308c0.542,0.063,1.099,0.063,1.646,0.117
				c0.361,0,0.728,0.068,1.099,0.068l0,0c0.117,0,0.244,0,0.303,0.059c0.186,0.063,0.43,0.063,0.61,0.063c0.122,0,0.249,0,0.313,0
				h0.059c0.186,0,0.43,0,0.61,0c0.122,0,0.244,0,0.366,0c0.244,0,0.43,0,0.61,0c3.652,0,7.314-0.244,10.728-0.791l0,0
				c0.181,2.617,0.244,5.244,0.308,7.93c0.063,3.11,0,6.221-0.063,9.268h15.918c-0.244-7.012-0.854-14.082-1.831-21.099l0,0l0,0
				c0.854-0.366,1.65-0.732,2.441-1.099c0.361-0.181,0.669-0.361,1.035-0.547c0.244-0.122,0.488-0.244,0.728-0.366
				c8.354-4.688,13.169-11.401,13.779-19.082c0-0.239,0.063-0.425,0.063-0.674v-0.059c0-0.186,0-0.366,0-0.488
				C464.207,806.638,464.207,805.417,464.207,805.417z M450.306,793.586c3.779,2.93,6.401,6.343,7.383,9.937h-9.087
				c-0.244-2.256-0.791-4.453-1.523-6.582l0,0c-0.923-2.563-2.197-4.937-3.784-7.139c-0.181-0.244-0.361-0.488-0.547-0.728
				C445.667,790.417,448.167,791.941,450.306,793.586z M443.655,800.603C443.655,800.603,443.719,800.603,443.655,800.603
				L443.655,800.603c0.366,0.972,0.61,1.953,0.796,2.988h-3.965l0,0h-7.256c-0.063-0.732-0.117-1.528-0.181-2.256
				c0-0.122,0-0.244-0.063-0.361c-0.059-0.552-0.122-1.04-0.181-1.528c0-0.122-0.063-0.308-0.063-0.425
				c-0.063-0.249-0.063-0.547-0.122-0.791c0-0.068,0-0.122-0.059-0.186c-0.063-0.244-0.063-0.425-0.122-0.669
				c0-0.068,0-0.186-0.063-0.244c-0.059-0.249-0.059-0.493-0.117-0.732c-0.122-0.488-0.181-0.977-0.308-1.465
				c-0.366-1.523-0.728-2.988-1.221-4.39c-0.063-0.181-0.117-0.425-0.181-0.61c0-0.059-0.063-0.122-0.063-0.244
				c-0.303-0.854-0.61-1.646-0.977-2.383c-0.059-0.059-0.059-0.181-0.117-0.244l0,0c-0.122-0.303-0.308-0.61-0.425-0.913
				c0.61,0.244,1.152,0.488,1.704,0.791c0.063,0.063,0.186,0.063,0.244,0.117c0.488,0.244,0.977,0.493,1.465,0.796
				c0.063,0,0.063,0.059,0.122,0.059c0.063,0,0.063,0.068,0.117,0.068c0.493,0.303,0.977,0.601,1.465,0.913l0.063,0.059
				c0,0,0.063,0,0.063,0.068c0.488,0.361,0.977,0.728,1.46,1.099l0,0l0,0l0,0C439.451,792.859,442.254,796.516,443.655,800.603z
				 M399.207,819.563c-0.366-0.361-0.732-0.669-1.099-1.035c-0.244-0.244-0.493-0.488-0.732-0.791l0,0l0,0
				c-0.181-0.181-0.303-0.361-0.488-0.547c-0.059-0.059-0.122-0.122-0.181-0.244c-0.186-0.181-0.366-0.425-0.552-0.61
				c-0.361-0.425-0.669-0.918-0.967-1.401c0,0,0-0.059-0.068-0.059c-0.117-0.186-0.244-0.366-0.361-0.552
				c-0.493-0.791-0.977-1.646-1.348-2.5l0,0l0,0c-0.669-1.46-1.152-2.988-1.46-4.512h11.216v0.068
				c0.063,0.669,0.122,1.338,0.186,2.007c0,0.249,0.059,0.493,0.059,0.732c0,0.117,0,0.181,0,0.303c0,0.244,0.068,0.493,0.068,0.791
				c0.059,0.313,0.059,0.552,0.117,0.854c0,0.186,0.059,0.366,0.059,0.493c0,0.186,0.068,0.361,0.068,0.547
				c0.059,0.239,0.059,0.488,0.117,0.732c0.063,0.186,0.063,0.43,0.122,0.61v0.063c0.059,0.181,0.059,0.366,0.117,0.547
				c0.063,0.244,0.063,0.488,0.122,0.674c0.181,0.728,0.366,1.46,0.547,2.188c0.063,0.366,0.181,0.674,0.308,1.035
				c0.127,0.366,0.181,0.679,0.308,1.04c0.063,0.249,0.181,0.547,0.244,0.791c0.059,0.186,0.117,0.366,0.181,0.493
				c0.063,0.244,0.181,0.488,0.244,0.669c0.063,0.186,0.117,0.308,0.186,0.488c0.059,0.122,0.059,0.186,0.117,0.313
				c0.063,0.176,0.122,0.361,0.244,0.488c0.063,0.181,0.181,0.425,0.249,0.605c0.117,0.308,0.303,0.61,0.425,0.854v0.063
				c-2.012-0.854-3.901-1.89-5.61-3.11C400.911,820.969,400.062,820.295,399.207,819.563z M394.021,795.051L394.021,795.051
				c0.244-0.425,0.488-0.791,0.732-1.157c0.063-0.063,0.063-0.122,0.117-0.186c0.244-0.366,0.493-0.728,0.791-1.094
				c0.063-0.122,0.186-0.186,0.244-0.313c0.063-0.117,0.186-0.176,0.244-0.303c0.122-0.122,0.249-0.244,0.313-0.366
				c0.244-0.244,0.425-0.488,0.669-0.728c0.313-0.308,0.674-0.669,0.977-0.918c0.117-0.117,0.244-0.181,0.303-0.308l0,0
				c0.122-0.122,0.244-0.181,0.366-0.308c0.244-0.181,0.43-0.361,0.674-0.547l0,0l0,0c1.216-0.918,2.5-1.772,3.96-2.437
				c1.099-0.547,2.197-1.035,3.354-1.401c-0.61,1.284-1.152,2.749-1.646,4.272c-0.059,0.244-0.117,0.488-0.244,0.728
				c-0.791,2.808-1.343,5.918-1.582,9.209c0,0.181,0,0.361-0.063,0.488c-0.063,1.099-0.117,2.192-0.117,3.296
				c0,0.181,0,0.361,0,0.488h-11.465c0-0.063,0-0.127,0-0.186c0-0.244,0-0.488,0.063-0.669c0-0.186,0-0.308,0.059-0.488l0,0
				c0.122-1.401,0.43-2.749,0.854-4.087C392.986,797.063,393.475,796.028,394.021,795.051z M405.184,803.528
				c0.059-3.354,0.542-6.465,1.396-9.268c0.547-1.772,1.284-3.423,2.07-4.819c2.075-3.604,4.941-5.791,8.179-6.035
				c0.488,0,0.972,0,1.46,0.063c0.117,0,0.181,0,0.244,0.059c0.728,0.122,1.465,0.308,2.134,0.61c0.063,0,0.122,0.063,0.186,0.063
				c5.117,2.319,9.146,9.507,10.244,18.11c0.059,0.361,0.122,0.791,0.122,1.157h-3.848l0,0h-22.188V803.528L405.184,803.528z
				 M413.597,770.115L413.597,770.115l3.291,5.791c0.117,0.181,0.244,0.425,0.308,0.61l0,0c-0.063,0-0.117,0-0.186,0h-0.059
				c-0.186,0-0.43,0-0.61,0c-0.117,0-0.244,0-0.366,0c-0.063,0-0.181,0-0.244,0c-0.117,0-0.244,0-0.366,0
				c-5.488,0-10.786,0.61-15.669,1.709c-1.582,0.361-3.11,0.791-4.575,1.216l0,0l0,0c-0.361-0.732-0.786-1.401-1.152-2.139
				c-0.977-1.704-1.89-3.472-2.93-5.244l0,0L413.597,770.115z M371.463,747.737L371.463,747.737L371.463,747.737
				c-3.721-2.617-6.279-6.284-7.012-10.361h8.11c0.122,2.559,0.488,5,1.094,7.188c0.43,1.587,0.923,3.11,1.533,4.458
				c0.117,0.303,0.303,0.669,0.425,0.972c-0.977-0.43-1.89-0.854-2.744-1.401c0,0,0,0-0.063,0
				C372.376,748.342,371.888,748.039,371.463,747.737z M364.266,747.126c-0.244-0.122-0.488-0.249-0.728-0.435
				c-0.425-0.244-0.791-0.488-1.157-0.728l0,0c-0.244-0.186-0.542-0.366-0.791-0.488c-0.063-0.068-0.117-0.068-0.117-0.122
				c-0.186-0.117-0.366-0.244-0.552-0.43c-0.059-0.059-0.181-0.122-0.244-0.181c-0.181-0.117-0.303-0.244-0.483-0.366
				c-0.068-0.063-0.122-0.117-0.186-0.186c-0.244-0.176-0.425-0.361-0.669-0.542c-0.122-0.063-0.186-0.181-0.313-0.244
				c-0.117-0.122-0.244-0.181-0.366-0.308c-0.244-0.244-0.488-0.488-0.728-0.728l0,0c-0.068-0.068-0.186-0.186-0.244-0.244
				c-0.122-0.122-0.186-0.249-0.313-0.313c-0.117-0.059-0.181-0.244-0.244-0.303c-0.059-0.068-0.059-0.068-0.059-0.122l-0.068-0.063
				c-0.059-0.063-0.059-0.122-0.117-0.181c-0.063-0.063-0.063-0.122-0.122-0.122c-0.059-0.059-0.117-0.186-0.181-0.244
				s-0.117-0.181-0.186-0.244c0,0,0,0,0-0.059c-0.059-0.068-0.117-0.186-0.176-0.249c-0.068-0.117-0.122-0.244-0.186-0.361
				c-0.063-0.122-0.122-0.244-0.181-0.366c-0.186-0.313-0.366-0.674-0.493-1.035c-0.059-0.063-0.059-0.127-0.059-0.186
				c-0.063-0.117-0.117-0.244-0.117-0.366c-0.068-0.176-0.122-0.361-0.186-0.542l0,0h6.523c0.063,0.728,0.186,1.46,0.366,2.188l0,0
				l0,0c0.244,1.162,0.61,2.319,1.04,3.354c0.059,0.068,0.059,0.186,0.117,0.249c0.063,0.176,0.117,0.308,0.181,0.488
				c0.425,0.977,0.977,1.953,1.587,2.866c0.059,0.059,0.059,0.117,0.117,0.181c0,0.063,0.063,0.063,0.063,0.117
				c0.063,0.063,0.063,0.122,0.117,0.186c0,0,0,0,0,0.059c0.186,0.249,0.366,0.552,0.547,0.796
				c-0.239-0.117-0.425-0.186-0.605-0.308C364.754,747.37,364.51,747.248,364.266,747.126z M360.73,725.417
				c0.308-0.181,0.61-0.425,0.918-0.61c0.674-0.361,1.343-0.728,2.075-1.099l0,0l0,0c0.244-0.117,0.488-0.239,0.728-0.303
				c0.181-0.122,0.425-0.181,0.61-0.308c-0.063,0.063-0.063,0.122-0.122,0.181c-0.063,0.063-0.063,0.122-0.117,0.186
				c0,0.059-0.063,0.059-0.063,0.117c0,0.063-0.063,0.063-0.063,0.117c-0.063,0.063-0.063,0.122-0.063,0.122
				c-0.059,0.063-0.122,0.186-0.181,0.244l0,0l0,0c-0.063,0.117-0.186,0.244-0.244,0.366c-0.43,0.728-0.854,1.465-1.157,2.251
				c-0.244,0.552-0.43,1.104-0.61,1.646c-0.488,1.465-0.791,2.993-0.972,4.517c-0.068,0.61-0.122,1.157-0.122,1.772h-6.768v-0.122
				c0-0.186,0-0.366,0.059-0.552c0-0.059,0-0.117,0-0.244c0-0.122,0.063-0.239,0.063-0.366c0-0.059,0-0.176,0.063-0.239
				c0.308-1.465,0.913-2.808,1.89-4.028C357.684,727.737,359.085,726.516,360.73,725.417z M374.021,737.37h18.843v0.117
				c0,0.61-0.059,1.279-0.117,1.826c0,0.063,0,0.063,0,0.122l0,0c0,0.063,0,0.117,0,0.117c-0.122,1.646-0.425,3.11-0.854,4.512
				c-0.425,1.343-0.977,2.617-1.646,3.657c-1.465,2.437-3.535,3.96-5.791,4.082c-0.366,0-0.674,0-1.04,0l0,0
				c-0.059,0-0.117,0-0.181-0.059C378.533,751.086,374.754,744.87,374.021,737.37z M392.132,749.748
				c0.308-0.728,0.61-1.523,0.796-2.378c0.181-0.493,0.303-1.04,0.425-1.587c0.366-1.523,0.61-3.11,0.728-4.756
				c0-0.117,0-0.244,0.063-0.303v-0.068c0.063-0.913,0.117-1.89,0.117-2.925c0-0.117,0-0.244,0-0.361h8.296c0,0.059,0,0.059,0,0.117
				c0,0.063,0,0.122,0,0.122c-0.122,2.988-1.221,5.669-3.052,7.866c-0.117,0.176-0.303,0.356-0.425,0.488
				c-0.063,0.059-0.117,0.112-0.186,0.181c-0.913,0.977-1.89,1.831-3.042,2.559c-0.977,0.674-2.012,1.221-3.169,1.65
				c-0.366,0.122-0.679,0.244-1.04,0.366C391.829,750.481,391.951,750.115,392.132,749.748z M412.195,737.551
				c-0.117,2.437-1.221,4.751-3.174,6.709c-0.728,0.791-1.646,1.523-2.622,2.188c-0.361,0.244-0.786,0.552-1.211,0.796l0,0
				c-0.43,0.244-0.859,0.493-1.289,0.669l0,0c-0.176,0.122-0.361,0.186-0.542,0.244c-0.244,0.122-0.547,0.249-0.791,0.366
				c-0.308,0.122-0.552,0.244-0.854,0.366c0.059-0.063,0.059-0.122,0.117-0.186c0.122-0.181,0.249-0.366,0.366-0.547
				c0.244-0.361,0.493-0.786,0.732-1.216c0.605-1.035,1.035-2.192,1.46-3.354c0.361-1.099,0.61-2.256,0.791-3.418
				c0.181-0.913,0.249-1.89,0.249-2.866h6.768C412.254,737.429,412.195,737.492,412.195,737.551z M411.951,734.685h-6.523
				c-0.366-3.413-1.587-6.646-3.477-9.39c-0.244-0.366-0.488-0.669-0.728-1.035C406.829,726.941,410.784,730.603,411.951,734.685z
				 M402.376,734.685h-8.11c-0.117-1.582-0.244-3.11-0.488-4.57c-0.493-2.622-1.157-5.063-2.07-7.134
				c-0.122-0.313-0.313-0.679-0.43-0.977C397.073,724.563,401.341,729.319,402.376,734.685z M375.306,727.063
				c0.181-0.488,0.425-0.972,0.605-1.46c0.186-0.366,0.366-0.728,0.552-1.04c0.059-0.059,0.117-0.181,0.181-0.244
				c0.972-1.582,2.192-2.803,3.54-3.477c0.728-0.356,1.46-0.542,2.188-0.605c0.366,0,0.674,0,1.035,0.063l0,0
				c0.063,0,0.122,0,0.186,0c3.228,0.488,6.035,3.652,7.744,8.042c0.732,1.958,1.221,4.087,1.465,6.406h-18.784
				c0-0.244,0-0.488,0-0.796c0.117-2.5,0.552-4.814,1.284-6.768C375.306,727.126,375.306,727.063,375.306,727.063z M373.777,721.819
				c0.488-0.181,0.918-0.366,1.406-0.547c-0.186,0.43-0.366,0.859-0.552,1.284c-0.059,0.244-0.181,0.43-0.244,0.674
				c0,0.059-0.059,0.112-0.059,0.181c-0.068,0.181-0.122,0.303-0.186,0.488c-0.063,0.122-0.063,0.244-0.122,0.366
				c-0.059,0.117-0.059,0.303-0.122,0.425c-0.059,0.244-0.176,0.488-0.244,0.796c-0.059,0.181-0.117,0.425-0.117,0.605
				c-0.488,2.075-0.791,4.395-0.918,6.826l0,0c0,0.493-0.059,0.918-0.059,1.401v0.366h-8.296c0-0.059,0-0.059,0-0.122
				c0.068-2.188,0.679-4.204,1.646-6.035c0.186-0.303,0.366-0.61,0.552-0.854c0.913-1.343,2.07-2.559,3.413-3.599
				c0.244-0.244,0.552-0.425,0.854-0.605c0.063-0.063,0.181-0.127,0.244-0.186c0,0,0.063,0,0.063-0.059l0.063-0.063
				c0.181-0.122,0.425-0.249,0.61-0.366c0.244-0.122,0.488-0.308,0.791-0.425c0.063,0,0.063-0.063,0.117-0.063
				C372.986,722.126,373.353,722.004,373.777,721.819z M309.207,704.87L309.207,704.87L309.207,704.87c0.059,0,0.122,0,0.181,0.059
				c0,0,0,0,0-0.059l0,0l0,0l1.099-0.068h0.181l0.61-0.059h0.244h0.366h0.117l0,0l0,0c0,0,0,0,0,0.059l0,0
				c0.068,0.552,0.186,1.035,0.366,1.528l0,0c0.43,1.582,1.157,3.047,2.075,4.453c0.303,0.425,0.61,0.854,0.977,1.279
				c0,0,0,0-0.068,0l0,0c-2.134-0.913-3.965-2.007-5.361-3.291c-0.425-0.361-0.791-0.786-1.157-1.152
				c-0.063-0.063-0.063-0.063-0.063-0.122c-0.059-0.117-0.181-0.244-0.244-0.361c0-0.068-0.063-0.068-0.063-0.122
				c-0.308-0.43-0.61-0.918-0.786-1.343l0,0c-0.068-0.181-0.186-0.308-0.249-0.547c-0.063-0.063-0.063-0.122-0.063-0.186
				L309.207,704.87z M320.184,706.272c0,0.063,0,0.122,0.059,0.181c0.122,0.796,0.308,1.587,0.488,2.319
				c0.063,0.181,0.122,0.366,0.181,0.547c0.43,1.465,0.977,2.813,1.587,3.965c0,0,0,0.059,0.063,0.059
				c-0.186-0.059-0.43-0.176-0.61-0.239l0,0c-2.378-0.972-4.331-2.5-5.728-4.326c-0.43-0.547-0.791-1.104-1.104-1.646
				c-0.176-0.366-0.361-0.732-0.488-1.104c-0.117-0.244-0.181-0.542-0.303-0.786l0,0c-0.068-0.186-0.122-0.366-0.186-0.552
				l5.854-0.244l0,0C319.998,705.051,320.12,705.656,320.184,706.272z M324.573,712.492c0-0.063-0.068-0.063-0.068-0.117
				c-0.488-0.552-0.913-1.104-1.343-1.831c-0.181-0.366-0.425-0.732-0.605-1.099c0,0,0,0,0-0.063s-0.063-0.063-0.063-0.117
				c-0.366-0.791-0.669-1.646-0.977-2.563c0-0.063-0.059-0.122-0.059-0.249c-0.186-0.728-0.366-1.46-0.43-2.188h0.361l7.383-0.313
				l2.93-0.117l2.378-0.122h0.425v0.122c0.068,0.972,0,1.895-0.117,2.744c-0.122,0.977-0.308,1.895-0.61,2.744
				c-0.059,0.244-0.122,0.43-0.244,0.61c0,0.063-0.063,0.063-0.063,0.122c-0.063,0.181-0.181,0.43-0.244,0.61
				c-0.361,0.728-0.791,1.465-1.279,1.953c-0.728,0.854-1.582,1.401-2.5,1.646c-0.063,0-0.063,0-0.117,0.059l0,0l0,0
				c-0.186,0.063-0.313,0.063-0.43,0.063c-0.249,0-0.493,0-0.732,0c-0.059,0-0.122,0-0.181,0
				C326.766,714.26,325.608,713.586,324.573,712.492z M334.754,711.516c0-0.068,0.063-0.122,0.063-0.186
				c0.059-0.308,0.181-0.605,0.244-0.918c0-0.059,0-0.117,0.059-0.117c0-0.059,0-0.122,0.068-0.122c0-0.059,0-0.117,0.059-0.181
				c0.122-0.674,0.244-1.343,0.313-2.007c0.059-0.313,0.059-0.61,0.059-0.923c0.059-1.035,0.117-2.07,0.059-3.169v-0.244h0.186
				l3.965-0.181l0.913-0.063l0.918-0.068c0,0.068,0,0.068,0,0.127c0,0.85-0.063,1.646-0.308,2.437
				c-0.308,1.152-0.786,2.256-1.465,3.228c-0.542,0.732-1.152,1.465-1.948,2.07l0,0c-0.063,0.063-0.063,0.063-0.122,0.122
				c0,0,0,0-0.063,0.063l0,0l0,0l0,0c0,0-0.059,0-0.059,0.059l0,0c-0.244,0.186-0.552,0.43-0.796,0.61l0,0
				c-0.181,0.122-0.366,0.244-0.61,0.366c-0.61,0.366-1.279,0.732-2.012,0.977C334.329,712.795,334.573,712.185,334.754,711.516z
				 M348.411,703.156c0,1.831-0.728,3.535-2.134,5.068c-0.791,0.913-1.826,1.704-2.993,2.432c-0.117,0.068-0.239,0.181-0.356,0.249
				c-0.186,0.117-0.313,0.181-0.493,0.303c-0.361,0.186-0.791,0.43-1.157,0.61l0,0c0.117-0.117,0.186-0.303,0.244-0.425
				c0-0.063,0.063-0.063,0.063-0.122c0.063-0.063,0.063-0.117,0.122-0.181l0,0c0.117-0.181,0.244-0.425,0.303-0.605
				c0-0.068,0.068-0.068,0.068-0.068c0.244-0.488,0.425-0.972,0.61-1.523c0.244-0.61,0.361-1.279,0.542-1.953
				c0.244-1.157,0.366-2.314,0.308-3.535l3.418-0.181L348.411,703.156C348.411,703.103,348.411,703.156,348.411,703.156z
				 M345.486,697.307c0.063,0,0.063,0.068,0.122,0.122c1.221,1.099,2.075,2.378,2.5,3.721l-4.697,0.181v-0.063
				c-0.059-0.488-0.181-0.972-0.303-1.465c-0.61-2.188-1.646-4.146-3.047-5.854C342.195,694.929,344.085,696.028,345.486,697.307z
				 M333.284,692.981c2.441,0.967,4.458,2.5,5.923,4.39c0.977,1.216,1.646,2.617,2.012,4.146l-1.221,0.059l-1.157,0.063l-3.11,0.122
				h-0.303c-0.366-3.477-1.284-6.587-2.568-8.901c0,0,0-0.063-0.059-0.063C332.986,692.795,333.167,692.859,333.284,692.981z
				 M326.463,691.692h0.728h0.122c1.338,0.122,2.559,0.923,3.652,2.075l0.063,0.063c0.244,0.308,0.488,0.61,0.728,0.918
				c0.313,0.425,0.61,0.918,0.923,1.46l0,0c0.786,1.587,1.46,3.477,1.704,5.552h-0.308l-2.378,0.117h-0.552l-6.523,0.308
				l-3.291,0.186h-0.43c0-0.552,0-1.104,0-1.646c0.063-0.796,0.122-1.465,0.244-2.197c0.244-1.343,0.679-2.559,1.162-3.535
				C323.353,693.103,324.754,691.882,326.463,691.692z M314.388,699.382c0.117-0.308,0.186-0.547,0.366-0.854
				c0.244-0.542,0.547-1.035,0.913-1.523c1.284-1.89,3.228-3.354,5.61-4.272c-0.181,0.366-0.308,0.732-0.425,1.099
				c-0.068,0.117-0.068,0.244-0.122,0.361c-0.063,0.122-0.063,0.249-0.117,0.313c-0.308,1.099-0.547,2.314-0.669,3.652
				c-0.068,0.674-0.122,1.401-0.122,2.139c0,0.488,0,1.035,0,1.523c0,0.063,0,0.186,0,0.313v0.244l-5,0.244l-0.923,0.059v-0.117
				c0-0.425,0-0.854,0.068-1.279c0-0.068,0-0.186,0.059-0.249c0.063-0.361,0.122-0.669,0.186-1.035
				C314.266,699.807,314.329,699.626,314.388,699.382z M306.951,702.917c0-0.181,0-0.303,0-0.488
				c0.122-1.704,0.913-3.354,2.314-4.756c0.122-0.117,0.244-0.244,0.366-0.425c0.122-0.117,0.244-0.244,0.366-0.308
				c0.43-0.366,0.913-0.732,1.401-1.104c0.791-0.542,1.709-1.035,2.681-1.523c-0.43,0.61-0.728,1.284-1.035,1.953
				c-0.181,0.366-0.308,0.674-0.43,1.035c-0.059,0.122-0.117,0.249-0.117,0.366c-0.063,0.244-0.122,0.43-0.181,0.669
				c-0.063,0.186-0.122,0.43-0.122,0.61c-0.244,1.221-0.361,2.5-0.361,3.721l-3.354,0.186h-0.313l-1.157,0.059l0,0h-0.059V702.917z
				 M333.167,720.481c-1.772-0.854-3.594-1.709-5.425-2.5h0.063c0.181,0,0.361,0,0.547,0l0,0c0.181,0,0.366,0,0.488,0
				c0.059,0,0.122,0,0.181,0h0.063c0.122,0,0.181,0,0.308,0c0.063,0,0.117,0,0.186,0c0.117,0,0.244,0,0.303,0
				c1.523-0.068,2.993-0.244,4.39-0.43c2.134-0.366,4.146-0.859,5.977-1.528c0.308-0.117,0.547-0.186,0.854-0.303
				c0.669-0.244,1.343-0.552,1.953-0.854c0.181-0.068,0.361-0.186,0.488-0.244l0,0c1.582,0.605,3.174,1.211,4.751,1.89
				c2.017,0.854,3.97,1.709,5.923,2.617l-20.488,1.831C333.597,720.656,333.353,720.603,333.167,720.481z M339.695,723.83
				l17.192-1.528l0,0c-0.181,0.122-0.366,0.313-0.547,0.435l0,0c-0.063,0.059-0.117,0.059-0.186,0.117
				c-1.279,1.094-2.314,2.256-3.228,3.535c-0.854,1.221-1.533,2.559-1.958,3.901c0,0.063-0.063,0.117-0.063,0.186l0,0
				c-2.861-1.899-5.728-3.662-8.716-5.313C341.399,724.748,340.55,724.26,339.695,723.83z M379.998,756.638L379.998,756.638
				L379.998,756.638c0.854,0.063,1.709,0.122,2.563,0.181c0.244,0,0.547,0,0.791,0l0,0c0.117,0,0.181,0,0.244,0
				c0.122,0,0.244,0,0.425,0c0.063,0,0.186,0,0.244,0h0.068c0.117,0,0.303,0,0.425,0c0.063,0,0.186,0,0.308,0
				c0.127,0,0.308,0,0.425,0c4.087,0,8.047-0.488,11.709-1.338c0.547-0.122,1.099-0.244,1.646-0.43l0,0
				c0.61-0.181,1.221-0.366,1.826-0.547c0.43-0.186,0.918-0.313,1.343-0.488l0,0l0,0c0.313,0.303,0.552,0.669,0.859,1.035l0,0
				c0.117,0.117,0.244,0.308,0.361,0.43c2.075,2.5,4.028,5.059,5.854,7.676l0,0l-22.563,2.012l0,0l-0.61-0.913
				c-0.181-0.244-0.361-0.552-0.605-0.791C383.655,761.15,381.888,758.894,379.998,756.638z M378.353,803.342
				c0.117-3.286,1.582-6.338,4.082-9.023c1.216-1.338,2.749-2.559,4.512-3.716c0.488-0.308,0.977-0.61,1.523-0.918
				c0.493-0.308,1.035-0.547,1.528-0.791c0.117-0.063,0.244-0.122,0.43-0.186c0.425-0.181,0.791-0.366,1.216-0.605
				c0.43-0.186,0.854-0.361,1.343-0.61c-0.181,0.249-0.366,0.493-0.488,0.732c-0.063,0.112-0.122,0.181-0.181,0.303
				c-0.122,0.122-0.186,0.308-0.313,0.425c0,0,0,0,0,0.068c0,0.059-0.059,0.059-0.059,0.117c-0.122,0.181-0.244,0.366-0.313,0.493
				c-0.059,0.117-0.117,0.244-0.176,0.425c-0.122,0.244-0.249,0.43-0.366,0.674c-0.063,0.112-0.122,0.244-0.186,0.361
				c-0.059,0.117-0.122,0.244-0.181,0.361c-0.117,0.249-0.244,0.552-0.366,0.796c-0.059,0.122-0.117,0.181-0.117,0.308
				c-0.063,0.117-0.063,0.186-0.122,0.308c-0.117,0.308-0.244,0.61-0.366,0.918c-0.059,0.117-0.059,0.244-0.117,0.361l0,0
				c-0.059,0.181-0.122,0.425-0.244,0.674c0,0.063-0.063,0.117-0.063,0.117l0,0c-0.063,0.186-0.117,0.313-0.117,0.488
				c-0.796,2.622-1.221,5.366-1.348,8.174h-9.326C378.353,803.469,378.353,803.406,378.353,803.342z M391.155,820.417
				c-6.523-3.535-11.035-8.169-12.432-13.169h9.082c0.547,5.059,2.437,9.692,5.308,13.721c0.181,0.239,0.361,0.483,0.542,0.732
				C392.806,821.272,391.951,820.906,391.155,820.417z M419.632,827.307c-0.244,0-0.547,0-0.854,0l0,0c-0.122,0-0.308,0-0.425,0
				c-0.068,0-0.122,0-0.186,0l0,0c-0.117,0-0.181,0-0.239-0.059c-1.221-0.186-2.441-0.674-3.599-1.406
				c-2.197-1.396-4.214-3.711-5.732-6.704l0,0c-3.11-9.082-2.622-11.279-2.813-11.89h25.493v0.181c0,0.308,0,0.61,0,0.977
				c0,0.244,0,0.488-0.059,0.728c0,0.059,0,0.122,0,0.181l0,0l0,0c0,0.186,0,0.366-0.068,0.552
				c-0.059,0.542-0.117,1.035-0.181,1.523c0,0.181-0.063,0.366-0.063,0.547c-0.059,0.308-0.059,0.547-0.122,0.854
				c0,0.063,0,0.117,0,0.117s0,0,0,0.068c0,0.181-0.059,0.303-0.059,0.488c0,0.059,0,0.059,0,0.117c0,0.063,0,0.117-0.063,0.181
				c0,0,0,0,0,0.063c-0.059,0.186-0.059,0.366-0.117,0.61l0,0l0,0l0,0l0,0v0.063c-0.117,0.547-0.244,1.035-0.43,1.523
				c0,0.063-0.059,0.122-0.059,0.181l0,0C428.108,822.737,424.207,827.063,419.632,827.307z M429.632,825.842
				c0.488-0.967,0.854-1.948,1.279-3.042l0,0v-0.063c0.063-0.181,0.122-0.361,0.186-0.605c0.059-0.186,0.117-0.366,0.181-0.552
				v-0.059c0.063-0.186,0.063-0.313,0.117-0.493c0.068-0.244,0.122-0.488,0.186-0.728c0.063-0.308,0.181-0.61,0.244-0.977
				c0-0.122,0.063-0.244,0.063-0.366v-0.059c0.117-0.425,0.186-0.854,0.308-1.279c0.122-0.43,0.181-0.923,0.244-1.406
				s0.181-0.967,0.249-1.401c0.059-0.425,0.117-0.972,0.176-1.465c0-0.181,0.068-0.356,0.068-0.542c0-0.063,0-0.122,0-0.244
				c0-0.249,0.059-0.493,0.059-0.732v-0.059v-0.068c0-0.059,0-0.117,0-0.176c0-0.122,0-0.313,0-0.435c0-0.059,0-0.059,0-0.112
				c0-0.127,0-0.186,0-0.313c0-0.059,0-0.117,0-0.244c0-0.122,0-0.244,0-0.303c0-0.366,0.063-0.732,0.063-1.104
				c0-0.43,0-0.854,0.063-1.279c0-0.186,0-0.308,0-0.488h11.465c0,0.059,0,0.122,0,0.181c-0.068,2.256-0.552,4.39-1.348,6.401
				c0,0.063-0.063,0.117-0.117,0.186l0,0c-0.122,0.244-0.244,0.542-0.366,0.786c-0.488,0.977-1.035,1.958-1.709,2.866
				c-0.122,0.186-0.244,0.366-0.425,0.552c-0.181,0.181-0.308,0.425-0.493,0.605c-0.059,0.063-0.117,0.117-0.176,0.181
				c-0.186,0.249-0.435,0.493-0.61,0.674c-0.068,0.063-0.122,0.117-0.186,0.186c-0.181,0.176-0.308,0.303-0.493,0.488l0,0
				c-0.669,0.669-1.46,1.279-2.251,1.826c-0.366,0.244-0.732,0.547-1.157,0.791c-0.244,0.181-0.547,0.361-0.854,0.493
				c-1.035,0.605-2.192,1.152-3.354,1.646C430.667,825.481,430.184,825.656,429.632,825.842z M458.108,807.429
				c-0.181,5.063-3.535,9.512-8.901,12.988c-0.854,0.552-1.772,1.035-2.686,1.528c-0.488,0.244-0.972,0.488-1.46,0.728l0,0l0,0
				c-0.488,0.244-0.977,0.43-1.465,0.61c0.244-0.303,0.488-0.669,0.728-1.035c0.181-0.244,0.366-0.547,0.493-0.854l0,0l0,0l0,0
				c0.303-0.552,0.61-1.099,0.913-1.646c0.493-1.04,0.977-2.075,1.348-3.174c0.303-0.913,0.61-1.826,0.854-2.803
				c0.542-2.139,0.85-4.395,0.913-6.587h9.326C458.108,807.307,458.108,807.37,458.108,807.429z"/>
		</g>
		<g>
			<path style="fill:#CA4D5E;" d="M366.277,671.086L366.277,671.086l-17.925,17.93c0,0,0,0-0.068,0l0,0
				c-1.152-0.859-2.432-1.587-3.779-2.197c-0.176-0.117-0.425-0.181-0.61-0.303c0,0-0.059,0-0.059-0.068h-0.063
				c-0.059,0-0.122-0.059-0.122-0.059c-0.059,0-0.059,0-0.117-0.063c-1.528-0.669-3.169-1.216-4.883-1.704l35.366-35.366
				l7.012,7.007L366.277,671.086z"/>
			<path style="fill:#CA4D5E;" d="M475.911,758.469l-22.925,22.925c-2.803-1.768-5.977-3.354-9.39-4.692l21.831-21.826
				l-89.331-89.331l7.07-7.07l92.744,92.739C477.928,753.225,477.928,756.452,475.911,758.469z"/>
			<path style="fill:#CA4D5E;" d="M371.829,844.138l-7.075,7.07l-92.681-92.739c-2.012-2.017-2.012-5.244,0-7.197l32.681-32.681l0,0
				c1.768,0.674,3.53,1.343,5.308,2.075c0.059,0,0.122,0.063,0.181,0.063c0.122,0.059,0.244,0.112,0.366,0.112
				c0,0,0.059,0,0.059,0.068c1.284,0.488,2.563,1.099,4.087,1.768l-32.192,32.197L371.829,844.138z"/>
			<path style="fill:#CA4D5E;" d="M391.521,842.859l-17.559,17.559l-7.075-7.075l21.343-21.279c0.977,0.493,1.958,0.923,2.993,1.348
				l0,0C391.399,836.452,391.521,839.626,391.521,842.859z"/>
		</g>
	</g>
</g>
</svg>
